<?xml version="1.0" encoding="UTF-8"?>
<svg version="1.1" xmlns="http://www.w3.org/2000/svg" width="519" height="508">
<path d="M0 0 C6.69858399 3.67548942 11.26058438 4.06865421 18.5690918 2.11669922 C20.97924512 1.40451757 23.385384 0.67864303 25.7878418 -0.05908203 C28.29812149 -0.80043142 30.80853708 -1.54132078 33.3190918 -2.28173828 C35.64226242 -2.97750545 37.96520323 -3.67404078 40.2878418 -4.37158203 C43.2825242 -5.26684926 46.28068802 -6.14426829 49.2878418 -6.99658203 C50.3809668 -7.31884766 51.4740918 -7.64111328 52.6003418 -7.97314453 C55.61827331 -8.42057042 56.78731179 -8.04260929 59.2878418 -6.37158203 C59.63082167 0.064118 58.52676477 4.91247807 56.3737793 10.94873047 C55.77193967 12.71816748 55.17038562 14.48770165 54.5690918 16.25732422 C53.61573103 19.01547176 52.65653051 21.77142258 51.69116211 24.52539062 C50.7574871 27.20316294 49.84593171 29.88772021 48.9362793 32.57373047 C48.6415976 33.39261749 48.34691589 34.21150452 48.04330444 35.0552063 C46.39398447 39.9606879 45.95842885 42.7564373 48.2878418 47.62841797 C48.81120117 48.74216797 49.33456055 49.85591797 49.8737793 51.00341797 C50.30750854 51.88139038 50.30750854 51.88139038 50.75 52.77709961 C63.5784304 78.79421321 65.28306126 110.33310947 56.03027344 137.83129883 C51.24830472 151.18393369 44.6551339 163.90658872 35.2878418 174.62841797 C34.50022461 175.55912109 33.71260742 176.48982422 32.90112305 177.44873047 C21.95779345 190.09576305 9.08512082 199.00240661 -5.7121582 206.62841797 C-7.14495117 207.38445312 -7.14495117 207.38445312 -8.60668945 208.15576172 C-30.61496162 219.01141621 -61.45374083 220.59280283 -84.7121582 213.62841797 C-85.40776855 213.42974121 -86.10337891 213.23106445 -86.82006836 213.02636719 C-103.58532191 208.18081328 -117.28723836 200.69743266 -130.7121582 189.62841797 C-131.41083008 189.07154297 -132.10950195 188.51466797 -132.8293457 187.94091797 C-149.8436671 174.02698403 -160.78029502 152.35734646 -166.7121582 131.62841797 C-167.19362305 130.03126953 -167.19362305 130.03126953 -167.68481445 128.40185547 C-175.01806115 99.27351743 -169.03331567 68.53254562 -154.6105957 42.74169922 C-145.10272127 27.14956769 -133.01533944 14.4591458 -117.7121582 4.62841797 C-116.74793945 3.99291016 -115.7837207 3.35740234 -114.7902832 2.70263672 C-80.76921748 -18.49004372 -34.9900646 -19.50737697 0 0 Z " fill="#F9D9C4" transform="translate(439.712158203125,279.37158203125)"/>
<path d="M0 0 C1.69298218 0.13378052 1.69298218 0.13378052 3.42016602 0.27026367 C17.24689359 1.52509496 30.03258624 4.94385149 42.375 11.375 C43.27347656 11.82617188 44.17195312 12.27734375 45.09765625 12.7421875 C73.04614119 27.28640611 92.54256368 51.48492103 102.625 81.0390625 C103.65864 84.46679514 104.55987191 87.88920096 105.375 91.375 C105.60058594 92.33792969 105.82617188 93.30085938 106.05859375 94.29296875 C111.72308696 123.86552986 105.19189043 154.80842886 88.5234375 179.72021484 C69.77216275 206.73895215 43.14291793 222.96885316 11.375 229.375 C10.47007812 229.56835938 9.56515625 229.76171875 8.6328125 229.9609375 C-13.26870923 232.74458415 -39.12530695 230.82078957 -58.37109375 219.13671875 C-66.8514308 214.04513463 -66.8514308 214.04513463 -76.53466797 213.8996582 C-79.41772769 214.664332 -82.23900622 215.55684237 -85.06103516 216.52197266 C-89.13033291 217.87582205 -93.25668904 219.01850087 -97.38500977 220.17749023 C-99.58916539 220.79813363 -101.78914942 221.43383455 -103.98413086 222.08618164 C-109.34779194 223.64720601 -114.02825688 224.90211708 -119.625 224.375 C-121.14823139 222.85176861 -120.81963267 221.49472789 -120.85595703 219.3737793 C-120.79435134 214.33001533 -119.58862771 210.12229638 -117.9296875 205.39453125 C-117.37351735 203.71946098 -116.8175332 202.04432895 -116.26171875 200.36914062 C-115.38031371 197.76704967 -114.49300011 195.1671068 -113.60107422 192.56860352 C-112.73718774 190.0362024 -111.89512636 187.49729222 -111.0546875 184.95703125 C-110.78187958 184.18502884 -110.50907166 183.41302643 -110.22799683 182.61763 C-107.85450438 175.39757358 -110.14825197 171.18438983 -113.4375 164.5625 C-117.09119578 156.76378016 -119.47138555 148.69877387 -121.625 140.375 C-121.81263916 139.71532227 -122.00027832 139.05564453 -122.19360352 138.37597656 C-124.05629951 131.21240342 -124.06394528 123.98813376 -124.0625 116.625 C-124.06389984 115.94302551 -124.06529968 115.26105103 -124.06674194 114.55841064 C-124.04613597 102.30341348 -122.45145475 91.04325836 -118.625 79.375 C-118.24085938 78.17359375 -117.85671875 76.9721875 -117.4609375 75.734375 C-113.39995329 64.29731742 -107.60615551 53.57650821 -100.25 43.9375 C-99.82114502 43.37546875 -99.39229004 42.8134375 -98.95043945 42.234375 C-97.89514426 40.90394101 -96.76602981 39.63267783 -95.625 38.375 C-94.965 38.375 -94.305 38.375 -93.625 38.375 C-93.35171875 37.77945313 -93.0784375 37.18390625 -92.796875 36.5703125 C-88.24104126 28.0357173 -78.46184993 22.62367326 -70.625 17.375 C-69.6659375 16.73175781 -68.706875 16.08851562 -67.71875 15.42578125 C-47.58908534 2.84474084 -23.45454065 -1.8583281 0 0 Z " fill="#F9D7C1" transform="translate(393.625,14.625)"/>
<path d="M0 0 C1.19496094 0.31710938 2.38992187 0.63421875 3.62109375 0.9609375 C18.92227546 5.52700442 33.23522133 13.19450329 45 24 C46.47339844 25.26263672 46.47339844 25.26263672 47.9765625 26.55078125 C68.97367306 44.7327483 81.01261043 69.70700585 85 97 C86.19278862 118.84201615 84.9829404 138.74228396 76 159 C75.57074219 159.98097656 75.14148438 160.96195313 74.69921875 161.97265625 C61.55751181 190.06999588 36.92414683 210.73624392 8.25 221.6875 C-18.82418775 230.78067248 -50.91490697 230.18988609 -77 218 C-78.37052769 217.29552315 -79.73752131 216.58414316 -81.1015625 215.8671875 C-81.81086914 215.49754883 -82.52017578 215.12791016 -83.25097656 214.74707031 C-84.63048048 214.01831169 -86.00047423 213.27114973 -87.35839844 212.50292969 C-87.99036133 212.16422852 -88.62232422 211.82552734 -89.2734375 211.4765625 C-90.09980713 211.0137085 -90.09980713 211.0137085 -90.94287109 210.54150391 C-95.99143976 209.21255478 -101.51711289 211.31428301 -106.38671875 212.7421875 C-107.57330078 213.08636719 -108.75988281 213.43054688 -109.98242188 213.78515625 C-111.81643555 214.32462891 -111.81643555 214.32462891 -113.6875 214.875 C-120.67679748 216.91900451 -127.66694086 218.95722671 -134.70703125 220.8203125 C-135.65682861 221.07312988 -136.60662598 221.32594727 -137.58520508 221.58642578 C-140 222 -140 222 -143 221 C-144.26230535 215.90314443 -143.54511992 212.04193098 -142.0625 207.125 C-141.8444873 206.36413086 -141.62647461 205.60326172 -141.40185547 204.81933594 C-140.00965941 200.0663729 -138.46158045 195.37732579 -136.84765625 190.6953125 C-136.4808374 189.62651855 -136.11401855 188.55772461 -135.73608398 187.45654297 C-135.00587276 185.34918321 -134.26226316 183.24640965 -133.50415039 181.14892578 C-131.09521667 174.24320131 -130.49838011 170.44071959 -133.48828125 163.58984375 C-134.09201241 162.37023693 -134.70027667 161.15286607 -135.3125 159.9375 C-147.93513504 133.81847919 -148.99073241 102.02458937 -139.59082031 74.70043945 C-136.73552244 66.75730946 -133.55590343 59.13372407 -129 52 C-128.32839844 50.94039062 -127.65679687 49.88078125 -126.96484375 48.7890625 C-118.26984442 35.63906782 -106.62539107 23.06656588 -93 15 C-91.36804688 14.00613281 -91.36804688 14.00613281 -89.703125 12.9921875 C-63.10231477 -2.91542016 -30.1949774 -8.37425529 0 0 Z " fill="#F9D7C1" transform="translate(164,18)"/>
<path d="M0 0 C4.55569934 1.53322089 7.79536986 0.43439422 12.23828125 -0.91015625 C13.53878896 -1.2880887 14.83968564 -1.66468404 16.14086914 -2.0402832 C21.54320718 -3.6100812 26.94105584 -5.1958339 32.32641602 -6.82299805 C34.65184799 -7.52379684 36.98155364 -8.20842784 39.3125 -8.890625 C40.01888107 -9.10824997 40.72526215 -9.32587494 41.45304871 -9.5500946 C45.73542544 -10.78670594 48.91802741 -11.06920866 53.23828125 -9.91015625 C54.23828125 -8.91015625 54.23828125 -8.91015625 54.27319336 -6.90942383 C53.67238423 1.30564473 51.43329429 8.62839679 48.80078125 16.40234375 C48.39279297 17.63791016 47.98480469 18.87347656 47.56445312 20.14648438 C46.11006737 24.54285761 44.63673888 28.93220194 43.12963867 33.31079102 C40.83444882 40.46667875 43.35122995 45.08184975 46.48828125 51.46484375 C59.4293413 78.88636451 59.89544299 110.94266385 50.16699219 139.47436523 C40.01913186 167.58153174 17.47706547 191.70867205 -9.47338867 204.43310547 C-36.60091042 216.66407815 -69.93771286 218.55499437 -98.01171875 208.27734375 C-121.20980905 199.22347804 -140.59436384 184.64499848 -154.76171875 164.08984375 C-155.14811523 163.54585937 -155.53451172 163.001875 -155.93261719 162.44140625 C-168.79746799 144.06612899 -174.17047421 121.49394574 -174.07421875 99.33984375 C-174.07239594 98.67620819 -174.07057312 98.01257263 -174.06869507 97.3288269 C-174.02335279 87.53149839 -173.59113997 78.51742945 -170.76171875 69.08984375 C-170.43300781 67.89488281 -170.10429687 66.69992187 -169.765625 65.46875 C-160.96113995 36.19155232 -140.43383035 11.7307541 -113.76171875 -2.91015625 C-113.05660156 -3.32652344 -112.35148437 -3.74289062 -111.625 -4.171875 C-105.9546099 -7.3088971 -99.99951035 -9.22462532 -93.82421875 -11.09765625 C-93.00195801 -11.34773438 -92.17969727 -11.5978125 -91.33251953 -11.85546875 C-60.79261252 -20.77927179 -27.26506392 -16.38675379 0 0 Z " fill="#FAD9C4" transform="translate(192.76171875,281.91015625)"/>
<path d="M0 0 C1.69298218 0.13378052 1.69298218 0.13378052 3.42016602 0.27026367 C17.24689359 1.52509496 30.03258624 4.94385149 42.375 11.375 C43.27347656 11.82617188 44.17195312 12.27734375 45.09765625 12.7421875 C73.04614119 27.28640611 92.54256368 51.48492103 102.625 81.0390625 C103.65864 84.46679514 104.55987191 87.88920096 105.375 91.375 C105.60058594 92.33792969 105.82617188 93.30085938 106.05859375 94.29296875 C111.72308696 123.86552986 105.19189043 154.80842886 88.5234375 179.72021484 C69.77216275 206.73895215 43.14291793 222.96885316 11.375 229.375 C10.47007812 229.56835938 9.56515625 229.76171875 8.6328125 229.9609375 C-13.26870923 232.74458415 -39.12530695 230.82078957 -58.37109375 219.13671875 C-66.8514308 214.04513463 -66.8514308 214.04513463 -76.53466797 213.8996582 C-79.41772769 214.664332 -82.23900622 215.55684237 -85.06103516 216.52197266 C-89.13033291 217.87582205 -93.25668904 219.01850087 -97.38500977 220.17749023 C-99.58916539 220.79813363 -101.78914942 221.43383455 -103.98413086 222.08618164 C-109.34779194 223.64720601 -114.02825688 224.90211708 -119.625 224.375 C-121.14823139 222.85176861 -120.81963267 221.49472789 -120.85595703 219.3737793 C-120.79435134 214.33001533 -119.58862771 210.12229638 -117.9296875 205.39453125 C-117.37351735 203.71946098 -116.8175332 202.04432895 -116.26171875 200.36914062 C-115.38031371 197.76704967 -114.49300011 195.1671068 -113.60107422 192.56860352 C-112.73718774 190.0362024 -111.89512636 187.49729222 -111.0546875 184.95703125 C-110.78187958 184.18502884 -110.50907166 183.41302643 -110.22799683 182.61763 C-107.85450438 175.39757358 -110.14825197 171.18438983 -113.4375 164.5625 C-117.09119578 156.76378016 -119.47138555 148.69877387 -121.625 140.375 C-121.81263916 139.71532227 -122.00027832 139.05564453 -122.19360352 138.37597656 C-124.05629951 131.21240342 -124.06394528 123.98813376 -124.0625 116.625 C-124.06389984 115.94302551 -124.06529968 115.26105103 -124.06674194 114.55841064 C-124.04613597 102.30341348 -122.45145475 91.04325836 -118.625 79.375 C-118.24085938 78.17359375 -117.85671875 76.9721875 -117.4609375 75.734375 C-113.39995329 64.29731742 -107.60615551 53.57650821 -100.25 43.9375 C-99.82114502 43.37546875 -99.39229004 42.8134375 -98.95043945 42.234375 C-97.89514426 40.90394101 -96.76602981 39.63267783 -95.625 38.375 C-94.965 38.375 -94.305 38.375 -93.625 38.375 C-93.35171875 37.77945313 -93.0784375 37.18390625 -92.796875 36.5703125 C-88.24104126 28.0357173 -78.46184993 22.62367326 -70.625 17.375 C-69.6659375 16.73175781 -68.706875 16.08851562 -67.71875 15.42578125 C-47.58908534 2.84474084 -23.45454065 -1.8583281 0 0 Z M-87.375 44.3125 C-88.47079469 45.65660285 -89.55336436 47.01155747 -90.625 48.375 C-91.31851563 49.19742188 -92.01203125 50.01984375 -92.7265625 50.8671875 C-111.15039515 73.72286993 -115.64117759 101.33027112 -113.42285156 129.98632812 C-111.88027958 143.75887649 -107.2360966 157.1580909 -99.62890625 168.75 C-97.30189222 174.83464368 -100.20762754 182.14888541 -101.9375 188.1875 C-102.26754028 189.3633667 -102.26754028 189.3633667 -102.60424805 190.56298828 C-104.12380514 195.88390404 -105.86233735 201.0727175 -107.92578125 206.2109375 C-108.82996961 208.63033866 -108.82996961 208.63033866 -108.625 212.375 C-101.73513195 211.05863558 -94.92594108 209.52800684 -88.125 207.8125 C-87.23296875 207.59142578 -86.3409375 207.37035156 -85.421875 207.14257812 C-84.57109375 206.92923828 -83.7203125 206.71589844 -82.84375 206.49609375 C-82.07998047 206.3045874 -81.31621094 206.11308105 -80.52929688 205.91577148 C-78.56159687 205.4207443 -78.56159687 205.4207443 -76.625 204.375 C-69.31629018 203.32187738 -64.50980041 205.48151468 -58.3125 209.125 C-51.22997181 213.0586698 -44.50607999 216.32613601 -36.625 218.375 C-35.63628906 218.67019531 -34.64757812 218.96539062 -33.62890625 219.26953125 C-5.52368168 226.65853987 24.68903229 219.57158679 49.375 205.375 C51.076109 204.08589809 52.74615663 202.75428417 54.375 201.375 C55.61636719 200.4159375 55.61636719 200.4159375 56.8828125 199.4375 C78.34928229 182.52064023 92.52602932 159.13474847 96.94140625 132.01171875 C97.61736472 125.92256317 97.69367841 119.80861334 97.75 113.6875 C97.77114868 112.01300781 97.77114868 112.01300781 97.79272461 110.3046875 C97.63548438 83.26733042 84.81654921 59.29886665 66.375 40.375 C65.80523437 39.73175781 65.23546875 39.08851562 64.6484375 38.42578125 C58.94662605 32.15378865 51.50900908 27.83207176 44.375 23.375 C43.43269531 22.78203125 42.49039063 22.1890625 41.51953125 21.578125 C26.04421448 12.49427794 8.48593506 10.01413684 -9.1875 10.125 C-10.42435547 10.11726563 -11.66121094 10.10953125 -12.93554688 10.1015625 C-41.62183953 10.16224212 -68.18976537 23.10776699 -87.375 44.3125 Z " fill="#0C48AE" transform="translate(393.625,14.625)"/>
<path d="M0 0 C6.69858399 3.67548942 11.26058438 4.06865421 18.5690918 2.11669922 C20.97924512 1.40451757 23.385384 0.67864303 25.7878418 -0.05908203 C28.29812149 -0.80043142 30.80853708 -1.54132078 33.3190918 -2.28173828 C35.64226242 -2.97750545 37.96520323 -3.67404078 40.2878418 -4.37158203 C43.2825242 -5.26684926 46.28068802 -6.14426829 49.2878418 -6.99658203 C50.3809668 -7.31884766 51.4740918 -7.64111328 52.6003418 -7.97314453 C55.61827331 -8.42057042 56.78731179 -8.04260929 59.2878418 -6.37158203 C59.63082167 0.064118 58.52676477 4.91247807 56.3737793 10.94873047 C55.77193967 12.71816748 55.17038562 14.48770165 54.5690918 16.25732422 C53.61573103 19.01547176 52.65653051 21.77142258 51.69116211 24.52539062 C50.7574871 27.20316294 49.84593171 29.88772021 48.9362793 32.57373047 C48.6415976 33.39261749 48.34691589 34.21150452 48.04330444 35.0552063 C46.39398447 39.9606879 45.95842885 42.7564373 48.2878418 47.62841797 C48.81120117 48.74216797 49.33456055 49.85591797 49.8737793 51.00341797 C50.30750854 51.88139038 50.30750854 51.88139038 50.75 52.77709961 C63.5784304 78.79421321 65.28306126 110.33310947 56.03027344 137.83129883 C51.24830472 151.18393369 44.6551339 163.90658872 35.2878418 174.62841797 C34.50022461 175.55912109 33.71260742 176.48982422 32.90112305 177.44873047 C21.95779345 190.09576305 9.08512082 199.00240661 -5.7121582 206.62841797 C-7.14495117 207.38445312 -7.14495117 207.38445312 -8.60668945 208.15576172 C-30.61496162 219.01141621 -61.45374083 220.59280283 -84.7121582 213.62841797 C-85.40776855 213.42974121 -86.10337891 213.23106445 -86.82006836 213.02636719 C-103.58532191 208.18081328 -117.28723836 200.69743266 -130.7121582 189.62841797 C-131.41083008 189.07154297 -132.10950195 188.51466797 -132.8293457 187.94091797 C-149.8436671 174.02698403 -160.78029502 152.35734646 -166.7121582 131.62841797 C-167.19362305 130.03126953 -167.19362305 130.03126953 -167.68481445 128.40185547 C-175.01806115 99.27351743 -169.03331567 68.53254562 -154.6105957 42.74169922 C-145.10272127 27.14956769 -133.01533944 14.4591458 -117.7121582 4.62841797 C-116.74793945 3.99291016 -115.7837207 3.35740234 -114.7902832 2.70263672 C-80.76921748 -18.49004372 -34.9900646 -19.50737697 0 0 Z M-136.14575195 33.81933594 C-143.2428849 42.01599354 -148.8143795 51.53345153 -152.7121582 61.62841797 C-153.15301758 62.76279297 -153.59387695 63.89716797 -154.0480957 65.06591797 C-158.53258021 77.09366831 -160.0568806 87.54101456 -160.0246582 100.37841797 C-160.04077148 101.64685547 -160.05688477 102.91529297 -160.07348633 104.22216797 C-160.07799153 113.05235895 -158.91752368 121.08691703 -156.7121582 129.62841797 C-156.40604614 130.83353027 -156.40604614 130.83353027 -156.09375 132.06298828 C-153.77735374 140.71167937 -150.72471414 148.19003249 -145.7121582 155.62841797 C-145.20040039 156.49595703 -144.68864258 157.36349609 -144.16137695 158.25732422 C-130.25994176 181.5812119 -107.26080404 197.61016978 -81.29418945 204.76904297 C-80.11211914 205.05263672 -78.93004883 205.33623047 -77.7121582 205.62841797 C-76.98818848 205.80646973 -76.26421875 205.98452148 -75.51831055 206.16796875 C-54.11791416 211.00087361 -30.35929675 208.27728628 -10.7121582 198.62841797 C-9.65641602 198.11408203 -8.60067383 197.59974609 -7.51293945 197.06982422 C9.91926319 188.13710973 24.60161879 175.04871186 35.2878418 158.62841797 C35.87952148 157.76603516 36.47120117 156.90365234 37.08081055 156.01513672 C51.50764668 133.49908121 55.09930275 103.24341021 49.6003418 77.37841797 C47.26100029 67.28888355 44.00550036 57.57630844 38.20581055 48.92138672 C35.81073822 42.9388018 37.46758271 36.91319277 39.4753418 31.06591797 C39.80828247 30.04751831 39.80828247 30.04751831 40.14794922 29.00854492 C40.84807173 26.87717021 41.56533384 24.75230043 42.2878418 22.62841797 C43.00241096 20.52019914 43.71660814 18.41187313 44.42773438 16.30249023 C45.06764362 14.41249331 45.71846877 12.52620265 46.36987305 10.64013672 C47.43362007 7.67489287 47.43362007 7.67489287 47.2878418 4.62841797 C37.74129889 6.33556446 28.40149838 8.85710182 19.0925293 11.55419922 C9.32411456 14.36228574 9.32411456 14.36228574 5.2878418 13.62841797 C3.58818831 12.45173479 1.89288137 11.26506786 0.2644043 9.99169922 C-2.68285956 7.9589026 -5.8593334 6.8368124 -9.20043945 5.59326172 C-11.47607981 4.71910438 -13.59420997 3.71231583 -15.7746582 2.62841797 C-25.07565091 -1.56614737 -36.52688569 -3.98418656 -46.7121582 -4.37158203 C-48.53553711 -4.44892578 -48.53553711 -4.44892578 -50.39575195 -4.52783203 C-84.27666652 -5.49938488 -113.33449133 9.09110492 -136.14575195 33.81933594 Z " fill="#0C48AE" transform="translate(439.712158203125,279.37158203125)"/>
<path d="M0 0 C4.55569934 1.53322089 7.79536986 0.43439422 12.23828125 -0.91015625 C13.53878896 -1.2880887 14.83968564 -1.66468404 16.14086914 -2.0402832 C21.54320718 -3.6100812 26.94105584 -5.1958339 32.32641602 -6.82299805 C34.65184799 -7.52379684 36.98155364 -8.20842784 39.3125 -8.890625 C40.01888107 -9.10824997 40.72526215 -9.32587494 41.45304871 -9.5500946 C45.73542544 -10.78670594 48.91802741 -11.06920866 53.23828125 -9.91015625 C54.23828125 -8.91015625 54.23828125 -8.91015625 54.27319336 -6.90942383 C53.67238423 1.30564473 51.43329429 8.62839679 48.80078125 16.40234375 C48.39279297 17.63791016 47.98480469 18.87347656 47.56445312 20.14648438 C46.11006737 24.54285761 44.63673888 28.93220194 43.12963867 33.31079102 C40.83444882 40.46667875 43.35122995 45.08184975 46.48828125 51.46484375 C59.4293413 78.88636451 59.89544299 110.94266385 50.16699219 139.47436523 C40.01913186 167.58153174 17.47706547 191.70867205 -9.47338867 204.43310547 C-36.60091042 216.66407815 -69.93771286 218.55499437 -98.01171875 208.27734375 C-121.20980905 199.22347804 -140.59436384 184.64499848 -154.76171875 164.08984375 C-155.14811523 163.54585937 -155.53451172 163.001875 -155.93261719 162.44140625 C-168.79746799 144.06612899 -174.17047421 121.49394574 -174.07421875 99.33984375 C-174.07239594 98.67620819 -174.07057312 98.01257263 -174.06869507 97.3288269 C-174.02335279 87.53149839 -173.59113997 78.51742945 -170.76171875 69.08984375 C-170.43300781 67.89488281 -170.10429687 66.69992187 -169.765625 65.46875 C-160.96113995 36.19155232 -140.43383035 11.7307541 -113.76171875 -2.91015625 C-113.05660156 -3.32652344 -112.35148437 -3.74289062 -111.625 -4.171875 C-105.9546099 -7.3088971 -99.99951035 -9.22462532 -93.82421875 -11.09765625 C-93.00195801 -11.34773438 -92.17969727 -11.5978125 -91.33251953 -11.85546875 C-60.79261252 -20.77927179 -27.26506392 -16.38675379 0 0 Z M-79.76171875 -4.91015625 C-81.36080078 -4.60078125 -81.36080078 -4.60078125 -82.9921875 -4.28515625 C-90.47543833 -2.74113263 -96.94578869 -0.3232154 -103.76171875 3.08984375 C-105.00888672 3.66025391 -105.00888672 3.66025391 -106.28125 4.2421875 C-127.96043445 14.38190054 -148.1578698 35.08917987 -156.71142578 57.58789062 C-167.14732316 86.38295163 -167.2512965 117.204682 -154.2109375 145.16796875 C-148.20349727 157.49019562 -140.41487074 167.43012722 -130.76171875 177.08984375 C-129.96121094 177.91355469 -129.16070312 178.73726562 -128.3359375 179.5859375 C-109.24870166 198.09574435 -81.34817395 205.62445091 -55.42578125 205.30078125 C-34.46507172 204.72309582 -13.1532444 198.60946573 3.23828125 185.08984375 C4.44429427 184.23240411 5.6525254 183.37807308 6.86328125 182.52734375 C27.22724137 167.17781742 42.77314646 141.98591789 46.55078125 116.71484375 C49.34181032 91.63919193 47.40645013 67.55764761 33.27734375 46.05078125 C30.02865363 36.79323571 35.21871196 26.38011174 38.30078125 17.58984375 C39.01038847 15.5387444 39.71692063 13.48664054 40.42051697 11.43347168 C41.05332857 9.59103494 41.69452986 7.75148608 42.33618164 5.91210938 C43.33976851 3.26615759 43.33976851 3.26615759 43.23828125 1.08984375 C35.27390864 2.3486713 27.6924173 4.29343846 19.98828125 6.65234375 C2.51247088 11.98855202 2.51247088 11.98855202 -2.76171875 10.08984375 C-2.76171875 9.42984375 -2.76171875 8.76984375 -2.76171875 8.08984375 C-5.7384289 6.81320315 -8.71851981 5.54464017 -11.69921875 4.27734375 C-12.53001953 3.92091797 -13.36082031 3.56449219 -14.21679688 3.19726562 C-35.43401597 -5.8014771 -56.94500305 -9.95949859 -79.76171875 -4.91015625 Z " fill="#0A47AF" transform="translate(192.76171875,281.91015625)"/>
<path d="M0 0 C1.19496094 0.31710938 2.38992187 0.63421875 3.62109375 0.9609375 C18.92227546 5.52700442 33.23522133 13.19450329 45 24 C46.47339844 25.26263672 46.47339844 25.26263672 47.9765625 26.55078125 C68.97367306 44.7327483 81.01261043 69.70700585 85 97 C86.19278862 118.84201615 84.9829404 138.74228396 76 159 C75.57074219 159.98097656 75.14148438 160.96195313 74.69921875 161.97265625 C61.55751181 190.06999588 36.92414683 210.73624392 8.25 221.6875 C-18.82418775 230.78067248 -50.91490697 230.18988609 -77 218 C-78.37052769 217.29552315 -79.73752131 216.58414316 -81.1015625 215.8671875 C-81.81086914 215.49754883 -82.52017578 215.12791016 -83.25097656 214.74707031 C-84.63048048 214.01831169 -86.00047423 213.27114973 -87.35839844 212.50292969 C-87.99036133 212.16422852 -88.62232422 211.82552734 -89.2734375 211.4765625 C-90.09980713 211.0137085 -90.09980713 211.0137085 -90.94287109 210.54150391 C-95.99143976 209.21255478 -101.51711289 211.31428301 -106.38671875 212.7421875 C-107.57330078 213.08636719 -108.75988281 213.43054688 -109.98242188 213.78515625 C-111.81643555 214.32462891 -111.81643555 214.32462891 -113.6875 214.875 C-120.67679748 216.91900451 -127.66694086 218.95722671 -134.70703125 220.8203125 C-135.65682861 221.07312988 -136.60662598 221.32594727 -137.58520508 221.58642578 C-140 222 -140 222 -143 221 C-144.26230535 215.90314443 -143.54511992 212.04193098 -142.0625 207.125 C-141.8444873 206.36413086 -141.62647461 205.60326172 -141.40185547 204.81933594 C-140.00965941 200.0663729 -138.46158045 195.37732579 -136.84765625 190.6953125 C-136.4808374 189.62651855 -136.11401855 188.55772461 -135.73608398 187.45654297 C-135.00587276 185.34918321 -134.26226316 183.24640965 -133.50415039 181.14892578 C-131.09521667 174.24320131 -130.49838011 170.44071959 -133.48828125 163.58984375 C-134.09201241 162.37023693 -134.70027667 161.15286607 -135.3125 159.9375 C-147.93513504 133.81847919 -148.99073241 102.02458937 -139.59082031 74.70043945 C-136.73552244 66.75730946 -133.55590343 59.13372407 -129 52 C-128.32839844 50.94039062 -127.65679687 49.88078125 -126.96484375 48.7890625 C-118.26984442 35.63906782 -106.62539107 23.06656588 -93 15 C-91.36804688 14.00613281 -91.36804688 14.00613281 -89.703125 12.9921875 C-63.10231477 -2.91542016 -30.1949774 -8.37425529 0 0 Z M-109 41 C-116.71425215 49.65228281 -128 62.86300052 -128 75 C-128.66 75 -129.32 75 -130 75 C-130.81645473 78.20734009 -131.62744888 81.41603716 -132.4375 84.625 C-132.66759766 85.52863281 -132.89769531 86.43226562 -133.13476562 87.36328125 C-139.32469619 111.94358521 -136.78655266 139.84384317 -123.80078125 162.05078125 C-123.24970703 162.95376953 -123.24970703 162.95376953 -122.6875 163.875 C-120.21635434 168.45119566 -120.65272941 172.09454976 -121.98828125 176.98828125 C-122.42081341 178.43237522 -122.86254732 179.87373871 -123.3125 181.3125 C-123.54179199 182.0657959 -123.77108398 182.8190918 -124.00732422 183.59521484 C-124.66182716 185.73331938 -125.32825783 187.86725831 -126 190 C-126.29519531 190.94488281 -126.59039062 191.88976562 -126.89453125 192.86328125 C-128.00048429 196.28759574 -129.2265161 199.5860874 -130.6875 202.875 C-132.19361624 205.89608493 -132.19361624 205.89608493 -132 209 C-126.0986732 208.68385749 -120.85780445 207.44845385 -115.25 205.625 C-95.05722214 199.08234063 -95.05722214 199.08234063 -89 201 C-86.64999969 202.23888905 -84.39272663 203.50255807 -82.125 204.875 C-74.53330083 209.4300195 -67.01540187 212.4417791 -58.4375 214.625 C-57.61314453 214.8415625 -56.78878906 215.058125 -55.93945312 215.28125 C-40.37147371 219.31324467 -22.68866343 219.83302573 -7 216 C-5.88625 215.77828125 -4.7725 215.5565625 -3.625 215.328125 C22.87470604 209.37691983 46.45065199 190.49821399 60.90234375 167.81640625 C74.59529998 145.15724381 80.54256412 114.95775811 74.375 89.0625 C73.66445265 86.34611986 72.86178427 83.67198721 72 81 C71.78037598 80.31325195 71.56075195 79.62650391 71.33447266 78.91894531 C62.76701804 52.85884626 44.09051954 30.50339093 19.55200195 18.08837891 C9.85377122 13.35032518 0.59731094 10.0411394 -10 8 C-10.93457031 7.77828125 -11.86914062 7.5565625 -12.83203125 7.328125 C-48.29455703 -0.54062135 -84.84229578 15.36506783 -109 41 Z " fill="#0C47AD" transform="translate(164,18)"/>
<path d="M0 0 C2.5 -0.3125 2.5 -0.3125 5 0 C8.02093215 3.02093215 7.46676834 6.56372072 7.625 10.625 C7.68300781 11.82769531 7.68300781 11.82769531 7.7421875 13.0546875 C7.83653931 15.03607556 7.91936215 17.01800645 8 19 C9.21236328 17.68322266 9.21236328 17.68322266 10.44921875 16.33984375 C11.52783195 15.20495508 12.60730421 14.07088245 13.6875 12.9375 C14.21794922 12.35677734 14.74839844 11.77605469 15.29492188 11.17773438 C16.80260754 9.61455107 18.20529719 8.22446613 20 7 C22.63498927 7.06178596 24.10774989 7.10774989 26 9 C26.3984375 11.19921875 26.3984375 11.19921875 26 14 C24.2568022 16.16004945 22.62940099 17.93587957 20.625 19.8125 C19.86316406 20.56563477 19.86316406 20.56563477 19.0859375 21.33398438 C15.29522747 25 15.29522747 25 13 25 C13 25.66 13 26.32 13 27 C13.85549438 26.99214478 13.85549438 26.99214478 14.72827148 26.98413086 C17.29800323 26.96341779 19.86771747 26.9503581 22.4375 26.9375 C23.33533203 26.92912109 24.23316406 26.92074219 25.15820312 26.91210938 C26.01220703 26.90888672 26.86621094 26.90566406 27.74609375 26.90234375 C28.53685303 26.89710693 29.3276123 26.89187012 30.14233398 26.88647461 C32 27 32 27 33 28 C33.125 31 33.125 31 33 34 C31.48578999 35.51421001 30.07527232 35.21309856 27.96484375 35.31640625 C27.15595703 35.35830078 26.34707031 35.40019531 25.51367188 35.44335938 C24.66353516 35.48267578 23.81339844 35.52199219 22.9375 35.5625 C22.08349609 35.60568359 21.22949219 35.64886719 20.34960938 35.69335938 C18.23327963 35.79976702 16.11666187 35.90041731 14 36 C14.53109375 36.53109375 15.0621875 37.0621875 15.609375 37.609375 C17.73958333 39.73958333 19.86979167 41.86979167 22 44 C22.7425 44.6909375 23.485 45.381875 24.25 46.09375 C26 48 26 48 26.25 50.75 C26.1675 51.4925 26.085 52.235 26 53 C22.83984375 53.80078125 22.83984375 53.80078125 19 54 C16.12890625 51.98046875 16.12890625 51.98046875 13.5625 49.1875 C12.69753906 48.27355469 11.83257812 47.35960937 10.94140625 46.41796875 C9 44 9 44 9 42 C8.34 42 7.68 42 7 42 C7 47.94 7 53.88 7 60 C3.535 60.495 3.535 60.495 0 61 C-2.93447357 58.06552643 -2.46158423 54.81740544 -2.625 50.875 C-2.66367187 50.12089844 -2.70234375 49.36679687 -2.7421875 48.58984375 C-2.83651031 46.72696816 -2.91934662 44.86351745 -3 43 C-3.73605469 43.7940625 -4.47210938 44.588125 -5.23046875 45.40625 C-6.21546474 46.43815056 -7.20117983 47.46936506 -8.1875 48.5 C-8.67025391 49.02464844 -9.15300781 49.54929687 -9.65039062 50.08984375 C-11.94943478 52.46603704 -13.42868293 53.90219965 -16.73828125 54.46875 C-19 54 -19 54 -21 52 C-21.125 49.3125 -21.125 49.3125 -20 46 C-18.11988909 44.01916887 -16.13684088 42.32200329 -14.0078125 40.61328125 C-12.20772203 39.16690506 -10.59790283 37.6632259 -9 36 C-10.20398438 35.95101562 -11.40796875 35.90203125 -12.6484375 35.8515625 C-14.22398198 35.77653657 -15.79950166 35.70098867 -17.375 35.625 C-18.1690625 35.5940625 -18.963125 35.563125 -19.78125 35.53125 C-25.7734375 35.2265625 -25.7734375 35.2265625 -28 33 C-27.43181818 27.43181818 -27.43181818 27.43181818 -26 26 C-23.30345146 25.92680379 -20.63308542 25.90757463 -17.9375 25.9375 C-17.17888672 25.94201172 -16.42027344 25.94652344 -15.63867188 25.95117188 C-13.75908129 25.9629932 -11.87953101 25.98092922 -10 26 C-11.08148167 24.74839762 -12.16527922 23.49879619 -13.25 22.25 C-13.88550781 21.51652344 -14.52101563 20.78304688 -15.17578125 20.02734375 C-17.02682679 17.89782157 -17.02682679 17.89782157 -19.4375 15.8125 C-21 14 -21 14 -21.375 11.375 C-21 9 -21 9 -19 7 C-14.57044671 7.23943531 -12.19529111 9.04435573 -9 12 C-8.08930643 13.04979085 -7.19353094 14.11269393 -6.3125 15.1875 C-4.30609749 18.01647233 -4.30609749 18.01647233 -2 19 C-2.02320313 17.87980469 -2.04640625 16.75960938 -2.0703125 15.60546875 C-2.08907237 14.13281916 -2.10727234 12.66016237 -2.125 11.1875 C-2.14175781 10.44951172 -2.15851563 9.71152344 -2.17578125 8.95117188 C-2.21074628 5.08753574 -2.19397555 3.29096332 0 0 Z " fill="#0A4DBD" transform="translate(383,349)"/>
<path d="M0 0 C6.06034826 4.26236112 10.36083012 8.93369168 11.8828125 16.32421875 C12.80166038 23.81735849 10.98505035 29.00132667 6.9453125 35.38671875 C2.41204982 40.48320497 -5.41429887 44.52500571 -12.2421875 45.01171875 C-19.95252527 43.6437556 -26.17749476 40.35456297 -30.93359375 34.0625 C-31.51947266 33.20205078 -31.51947266 33.20205078 -32.1171875 32.32421875 C-32.7359375 31.41671875 -33.3546875 30.50921875 -33.9921875 29.57421875 C-36.09889961 23.48816155 -36.23577016 17.0142036 -33.5546875 11.07421875 C-29.95584522 4.92461808 -25.20466832 -0.09684618 -18.28515625 -2.23828125 C-11.69928487 -3.56732196 -5.89652127 -3.40183919 0 0 Z " fill="#1150BE" transform="translate(145.1171875,108.67578125)"/>
<path d="M0 0 C4.16345942 1.53879602 6.60426722 4.41420662 9.61328125 7.59765625 C10.21076172 8.21318359 10.80824219 8.82871094 11.42382812 9.46289062 C12.89204335 10.97808874 14.34767678 12.50546063 15.80078125 14.03515625 C20.73493059 12.17745494 23.86021218 7.94306162 27.29101562 4.11523438 C28.828125 2.4921875 28.828125 2.4921875 31.80078125 0.03515625 C34.4186983 0.10414436 35.91760904 0.15198404 37.80078125 2.03515625 C38.2734375 4.1875 38.2734375 4.1875 37.80078125 7.03515625 C35.8596983 9.48427194 33.56069418 11.51491442 31.23828125 13.59765625 C29.99679907 14.71180692 28.76569507 15.83766506 27.546875 16.9765625 C26.99700928 17.46842041 26.44714355 17.96027832 25.88061523 18.46704102 C24.58499697 19.99607163 24.58499697 19.99607163 24.95898438 22.04882812 C26.6225443 25.97421198 30.45725182 28.70387827 33.58398438 31.52539062 C36.05652304 33.86139054 37.67160674 35.39831689 38.359375 38.7890625 C37.80078125 41.03515625 37.80078125 41.03515625 34.80078125 43.03515625 C31.47972203 42.71538382 29.84669564 41.44244808 27.56640625 39.09375 C26.99277344 38.51044922 26.41914063 37.92714844 25.828125 37.32617188 C25.24160156 36.71451172 24.65507812 36.10285156 24.05078125 35.47265625 C23.44878906 34.85712891 22.84679687 34.24160156 22.2265625 33.60742188 C20.74443744 32.09000812 19.27168455 30.56345029 17.80078125 29.03515625 C13.21994922 31.12177695 10.32544711 34.51364115 7.04296875 38.22265625 C4.52417641 40.8971043 3.21389141 41.98511203 -0.48828125 42.43359375 C-3.19921875 42.03515625 -3.19921875 42.03515625 -4.19921875 41.03515625 C-4.51128349 38.15845949 -4.58838272 36.59620591 -2.9140625 34.18237305 C-2.03427734 33.34186401 -2.03427734 33.34186401 -1.13671875 32.484375 C-0.18925781 31.56108398 -0.18925781 31.56108398 0.77734375 30.61914062 C1.44507813 29.99330078 2.1128125 29.36746094 2.80078125 28.72265625 C3.80238281 27.75489258 3.80238281 27.75489258 4.82421875 26.76757812 C6.47239328 25.17826698 8.13107223 23.60177723 9.80078125 22.03515625 C5.89611886 17.36371228 1.86335677 13.11036486 -2.66015625 9.02734375 C-4.19921875 7.03515625 -4.19921875 7.03515625 -4.55078125 4.41796875 C-4.08259186 1.2446851 -3.30788928 0.05287922 0 0 Z " fill="#0B4FBF" transform="translate(369.19921875,107.96484375)"/>
<path d="M0 0 C1.97290039 1.42114258 1.97290039 1.42114258 3.84765625 3.39453125 C4.53537109 4.10287109 5.22308594 4.81121094 5.93164062 5.54101562 C6.63482422 6.29060547 7.33800781 7.04019531 8.0625 7.8125 C9.46790718 9.27940175 10.87539113 10.7443172 12.28515625 12.20703125 C12.90269775 12.8616333 13.52023926 13.51623535 14.15649414 14.19067383 C15.97243541 16.0666798 15.97243541 16.0666798 18.20874023 17.5769043 C20 19 20 19 20.375 21.5625 C20 24 20 24 18 26 C15.70703125 26.4375 15.70703125 26.4375 13 26 C10.32421875 23.8125 10.32421875 23.8125 7.6875 21 C6.36298828 19.6078125 6.36298828 19.6078125 5.01171875 18.1875 C4.01591797 17.1046875 4.01591797 17.1046875 3 16 C2.98018066 16.86802246 2.96036133 17.73604492 2.93994141 18.63037109 C2.86190128 21.84726267 2.77521119 25.06377045 2.68261719 28.28027344 C2.64430673 29.67308572 2.60945741 31.06599765 2.578125 32.45898438 C2.53252093 34.45986308 2.47348377 36.46042146 2.4140625 38.4609375 C2.3826416 39.66540527 2.3512207 40.86987305 2.31884766 42.11083984 C2 45 2 45 0 47 C-2.5 47.25 -2.5 47.25 -5 47 C-7.79177569 44.20822431 -7.31213484 42.36816428 -7.4140625 38.4609375 C-7.45273438 37.15898437 -7.49140625 35.85703125 -7.53125 34.515625 C-7.56270763 33.13542138 -7.59395491 31.75521296 -7.625 30.375 C-7.66317934 28.98695459 -7.70223105 27.59893289 -7.7421875 26.2109375 C-7.83672943 22.80742815 -7.92227897 19.40392835 -8 16 C-8.66386719 16.721875 -9.32773438 17.44375 -10.01171875 18.1875 C-10.89472656 19.115625 -11.77773437 20.04375 -12.6875 21 C-13.55761719 21.928125 -14.42773438 22.85625 -15.32421875 23.8125 C-18 26 -18 26 -20.70703125 26.4375 C-23 26 -23 26 -25 24 C-25.46403155 20.86996673 -25.35691925 19.49457246 -23.48706055 16.90356445 C-22.44739136 15.89362427 -22.44739136 15.89362427 -21.38671875 14.86328125 C-20.2565332 13.75049805 -20.2565332 13.75049805 -19.10351562 12.61523438 C-18.30623047 11.85533203 -17.50894531 11.09542969 -16.6875 10.3125 C-15.50897461 9.15524414 -15.50897461 9.15524414 -14.30664062 7.97460938 C-5.39229898 -0.71213205 -5.39229898 -0.71213205 0 0 Z " fill="#0E4FBD" transform="translate(136,359)"/>
<path d="M0 0 C3.66222569 1.94443905 7.11439342 4.22878684 9 8 C9.40288977 12.81143363 9.61485588 17.39454299 7.875 21.9375 C4.05022686 26.14475045 0.7690745 28.25207796 -4.9375 28.625 C-9.76946596 28.44252394 -12.2775636 26.8884394 -15.72265625 23.60546875 C-18.71141145 19.84895991 -18.3857409 15.31152443 -18.35546875 10.734375 C-17.79756134 6.44277953 -16.16942042 4.87459061 -13 2 C-8.72888912 -0.84740725 -5.01145175 -0.87219957 0 0 Z " fill="#F3D6C6" transform="translate(138,115)"/>
<path d="M0 0 C8.9494851 13.42422765 6.46462668 38.4995399 3.5 53.5 C3.02324165 55.67189915 2.53332708 57.84129514 2 60 C1.67 60 1.34 60 1 60 C1.06566162 59.17935059 1.13132324 58.35870117 1.19897461 57.51318359 C1.90716109 48.21766703 2.29383609 38.94160643 2.5625 29.625 C2.60585855 28.19530455 2.64947715 26.76561697 2.69335938 25.3359375 C2.79855502 21.89070994 2.90028693 18.44539113 3 15 C2.34 15 1.68 15 1 15 C0.67 10.05 0.34 5.1 0 0 Z " fill="#1B3258" transform="translate(496,99)"/>
<path d="M0 0 C0.66 0.33 1.32 0.66 2 1 C-0.02124831 3.12910985 -2.04548156 4.81005091 -4.50390625 6.41015625 C-5.16197266 6.84263672 -5.82003906 7.27511719 -6.49804688 7.72070312 C-7.17931641 8.16349609 -7.86058594 8.60628906 -8.5625 9.0625 C-9.9193658 9.94707949 -11.27489539 10.83371291 -12.62890625 11.72265625 C-13.22775635 12.11203369 -13.82660645 12.50141113 -14.44360352 12.90258789 C-16.16083069 14.04721539 -16.16083069 14.04721539 -18 16 C-18.99 16 -19.98 16 -21 16 C-21.2475 16.58265625 -21.495 17.1653125 -21.75 17.765625 C-23.18525446 20.33114236 -24.77663013 21.83724798 -27 23.75 C-28.051875 24.67039062 -28.051875 24.67039062 -29.125 25.609375 C-31 27 -31 27 -33 27 C-27.72354451 15.50130926 -11.19506774 5.11179746 0 0 Z " fill="#395279" transform="translate(333,26)"/>
<path d="M0 0 C-2.68574382 0.81871381 -5.3733572 1.63008988 -8.0625 2.4375 C-9.19075195 2.78264648 -9.19075195 2.78264648 -10.34179688 3.13476562 C-11.08623047 3.35712891 -11.83066406 3.57949219 -12.59765625 3.80859375 C-13.27320557 4.01282959 -13.94875488 4.21706543 -14.64477539 4.42749023 C-22.07571752 6.23380922 -29.52166584 6.18620044 -37.11352539 6.18530273 C-39.16509164 6.18747626 -41.21610753 6.20563937 -43.26757812 6.22460938 C-51.36568045 6.25796809 -59.06288695 5.65297989 -67 4 C-67 3.67 -67 3.34 -67 3 C-64.89590361 2.97298592 -62.79170822 2.95359777 -60.6875 2.9375 C-59.51574219 2.92589844 -58.34398438 2.91429687 -57.13671875 2.90234375 C-54 3 -54 3 -51 4 C-36.2045235 5.04115732 -21.5052588 4.31979546 -7.31640625 -0.1640625 C-4.06660265 -0.98321205 -3.04568904 -0.93821988 0 0 Z " fill="#1B2D4A" transform="translate(174,490)"/>
<path d="M0 0 C1.2375 0.144375 2.475 0.28875 3.75 0.4375 C8.62458175 0.98685763 13.50617738 1.36478803 18.3984375 1.71875 C21 2 21 2 24 3 C34.12966134 3.72234733 44.87843357 2.60809565 54.78515625 0.37109375 C57 0 57 0 60 1 C58.52433205 1.4898355 57.04417897 1.9661592 55.5625 2.4375 C54.73878906 2.70433594 53.91507813 2.97117188 53.06640625 3.24609375 C37.36718923 7.10590125 17.41943322 6.98729442 2 2 C1.34 1.34 0.68 0.68 0 0 Z " fill="#CA8F73" transform="translate(104,231)"/>
<path d="M0 0 C1.35983509 2.23763909 2.03642251 3.53726861 1.828125 6.18359375 C1.63734375 6.92738281 1.4465625 7.67117187 1.25 8.4375 C1.06953125 9.17871094 0.8890625 9.91992188 0.703125 10.68359375 C-0.05823168 13.19184102 -1.02536399 15.56704669 -2 18 C-2.6865527 20.11865873 -3.35215198 22.24418739 -4 24.375 C-4.51820313 26.07849609 -4.51820313 26.07849609 -5.046875 27.81640625 C-6.06090496 31.20343253 -7.04966089 34.59461818 -8 38 C-4.535 37.505 -4.535 37.505 -1 37 C-4.00617269 40.00617269 -6.82381598 39.59585316 -11 40 C-10.42935477 35.11850223 -9.3911 30.81477881 -7.75 26.1875 C-4.75922037 17.56975522 -2.37020446 8.80505741 0 0 Z " fill="#E5A27B" transform="translate(296,187)"/>
<path d="M0 0 C0 3.2552891 -0.46038139 4.14470141 -2.0625 6.875 C-2.73732422 8.06029297 -2.73732422 8.06029297 -3.42578125 9.26953125 C-4.56626012 11.24768195 -5.7098975 13.22401275 -6.85546875 15.19921875 C-10.25433706 21.233086 -12.86298277 26.01212134 -13 33 C-14.485 33.495 -14.485 33.495 -16 34 C-16.3721042 35.32303717 -16.70630173 36.65737935 -17 38 C-17.99 38.495 -17.99 38.495 -19 39 C-16.31200396 25.25105474 -9.60784432 10.2874989 0 0 Z " fill="#40506A" transform="translate(293,60)"/>
<path d="M0 0 C0.33 0 0.66 0 1 0 C1.56800776 21.94476136 0.94853203 41.57240843 -8 62 C-8.33 62 -8.66 62 -9 62 C-9.125 55.25 -9.125 55.25 -8 53 C-7.34 53 -6.68 53 -6 53 C-5.80664062 51.85402344 -5.61328125 50.70804687 -5.4140625 49.52734375 C-5.15124341 47.99736117 -4.88821121 46.46741518 -4.625 44.9375 C-4.49867188 44.18533203 -4.37234375 43.43316406 -4.2421875 42.65820312 C-4.11328125 41.91376953 -3.984375 41.16933594 -3.8515625 40.40234375 C-3.73635254 39.72679443 -3.62114258 39.05124512 -3.50244141 38.35522461 C-3 36 -3 36 -1.97265625 32.6640625 C-0.99309625 28.9739931 -0.68749219 25.78095697 -0.5859375 21.97265625 C-0.54726562 20.68681641 -0.50859375 19.40097656 -0.46875 18.07617188 C-0.43730501 16.73828582 -0.40605741 15.40039511 -0.375 14.0625 C-0.33675658 12.69724244 -0.2977013 11.33200736 -0.2578125 9.96679688 C-0.16390063 6.6446646 -0.07822213 3.32253259 0 0 Z " fill="#1C3556" transform="translate(248,366)"/>
<path d="M0 0 C0.99 0 1.98 0 3 0 C3.17015625 0.90621094 3.3403125 1.81242187 3.515625 2.74609375 C4.82278876 9.31667756 6.21716082 15.32408074 9.23046875 21.328125 C10 23 10 23 10 25 C10.99 25.33 11.98 25.66 13 26 C13.68473395 28.32809543 14.34853151 30.66237777 15 33 C16.20217464 35.13513643 17.54890136 37.01683186 19 39 C18.67 39.66 18.34 40.32 18 41 C11.56338902 31.71697661 6.77771957 22.6429984 3 12 C2.6596875 11.06285156 2.319375 10.12570312 1.96875 9.16015625 C0.86401765 6.00450876 0 3.36540212 0 0 Z " fill="#2A3D5B" transform="translate(273,408)"/>
<path d="M0 0 C0.66 0.33 1.32 0.66 2 1 C0.71034824 2.37562854 -0.62689293 3.70766393 -2 5 C-2.66 5 -3.32 5 -4 5 C-4.0928125 5.8353125 -4.0928125 5.8353125 -4.1875 6.6875 C-5.35672428 10.01529218 -7.35322804 11.73133832 -10 14 C-10.99 14 -11.98 14 -13 14 C-13.26554687 14.58265625 -13.53109375 15.1653125 -13.8046875 15.765625 C-15.03302996 18.06174228 -16.40314939 19.80356018 -18.125 21.75 C-18.93324219 22.67039062 -18.93324219 22.67039062 -19.7578125 23.609375 C-20.16773438 24.06828125 -20.57765625 24.5271875 -21 25 C-21 20.82523216 -18.73587471 18.8839453 -16.125 15.875 C-15.63410889 15.30112549 -15.14321777 14.72725098 -14.63745117 14.13598633 C-10.1359382 8.96966558 -5.25047953 4.40766937 0 0 Z " fill="#2A3E5D" transform="translate(62,290)"/>
<path d="M0 0 C11.11185579 2.02033742 11.11185579 2.02033742 13.66796875 4.83984375 C16.95183359 7.8816817 20.61330289 9.15157475 24.75 10.75 C25.54277344 11.06582031 26.33554687 11.38164062 27.15234375 11.70703125 C29.09792189 12.48057437 31.04848779 13.24155202 33 14 C33 14.33 33 14.66 33 15 C27.12016526 14.4880355 22.64286528 12.72170391 17.375 10.125 C16.26898438 9.59712891 16.26898438 9.59712891 15.140625 9.05859375 C12.05905402 7.57303354 9.08504901 6.05121607 6.15234375 4.28515625 C3.76611391 2.86034751 1.73510458 2.39072923 -1 2 C-0.67 1.34 -0.34 0.68 0 0 Z " fill="#D4997B" transform="translate(322,216)"/>
<path d="M0 0 C0.33 0 0.66 0 1 0 C0.98952637 0.90242432 0.97905273 1.80484863 0.96826172 2.73461914 C0.93400464 6.10980833 0.90901633 9.48481045 0.89013672 12.86010742 C0.8801315 14.31586641 0.86652304 15.77160557 0.84912109 17.22729492 C0.82462956 19.3299654 0.81346206 21.43236824 0.8046875 23.53515625 C0.79421387 24.797229 0.78374023 26.05930176 0.77294922 27.35961914 C1.0102458 31.1642743 1.92837362 34.35565642 3 38 C2.625 41.9375 2.625 41.9375 2 45 C1.67 45 1.34 45 1 45 C-1.03122926 37.22608858 -1.28115189 29.71156817 -1.20581055 21.70288086 C-1.18737316 19.67353915 -1.18530281 17.6446518 -1.18554688 15.61523438 C-1.13715699 4.83504407 -1.13715699 4.83504407 0 0 Z " fill="#3F4A57" transform="translate(271,361)"/>
<path d="M0 0 C1 3 1 3 0.33496094 4.76171875 C-0.02823242 5.39722656 -0.39142578 6.03273438 -0.765625 6.6875 C-1.16136719 7.38617188 -1.55710937 8.08484375 -1.96484375 8.8046875 C-2.38894531 9.52914063 -2.81304687 10.25359375 -3.25 11 C-3.65863281 11.72445313 -4.06726563 12.44890625 -4.48828125 13.1953125 C-6.40803339 16.54098987 -8.16584709 19.34744508 -11 22 C-11.2295711 18.63295715 -11.33943529 16.58629732 -9.625 13.625 C-9.08875 13.08875 -8.5525 12.5525 -8 12 C-7.34 12 -6.68 12 -6 12 C-6 11.01 -6 10.02 -6 9 C-5.34 8.67 -4.68 8.34 -4 8 C-3.67 6.845 -3.34 5.69 -3 4.5 C-2.67 3.345 -2.34 2.19 -2 1 C-1.34 0.67 -0.68 0.34 0 0 Z " fill="#143062" transform="translate(490,426)"/>
<path d="M0 0 C4.85920719 0.55134726 8.38520758 2.02154155 12.6875 4.3125 C18.63205236 7.41203446 24.62112256 9.90408313 31 12 C27.81119348 13.0547762 26.0981104 12.9692151 22.98828125 11.7421875 C21.85688721 11.30144897 21.85688721 11.30144897 20.70263672 10.85180664 C19.51951904 10.36828735 19.51951904 10.36828735 18.3125 9.875 C17.50828613 9.5545874 16.70407227 9.2341748 15.87548828 8.90405273 C10.3261939 6.65207556 5.11706544 4.12709555 0 1 C0 0.67 0 0.34 0 0 Z " fill="#23334A" transform="translate(324,479)"/>
<path d="M0 0 C3.37705625 0.53725895 6.696686 1.11064623 10 2 C10 2.66 10 3.32 10 4 C10.81082031 4.10957031 11.62164062 4.21914063 12.45703125 4.33203125 C19.82442899 5.38696713 26.87276855 6.85754566 34 9 C34 9.33 34 9.66 34 10 C27.10278401 9.83613526 20.77348268 8.56373392 14.1875 6.625 C13.47086182 6.41593018 12.75422363 6.20686035 12.01586914 5.99145508 C7.77440273 4.69774119 3.92299408 3.10622288 0 1 C0 0.67 0 0.34 0 0 Z " fill="#D1926D" transform="translate(88,476)"/>
<path d="M0 0 C0.33 0.66 0.66 1.32 1 2 C0.01667938 4.37066422 -1.02073565 6.59714197 -2.1875 8.875 C-2.49236328 9.50019531 -2.79722656 10.12539062 -3.11132812 10.76953125 C-4.96830344 14.45233765 -6.90573652 17.26936393 -10 20 C-10 18.35 -10 16.7 -10 15 C-9.01 14.67 -8.02 14.34 -7 14 C-7 13.01 -7 12.02 -7 11 C-6.34 11 -5.68 11 -5 11 C-4.9175 9.9275 -4.835 8.855 -4.75 7.75 C-3.94523098 3.7261549 -3.12270126 2.51830747 0 0 Z " fill="#0D3068" transform="translate(240,173)"/>
<path d="M0 0 C0.66 0.33 1.32 0.66 2 1 C2 1.66 2 2.32 2 3 C-2.95 3.33 -7.9 3.66 -13 4 C-13.66 5.98 -14.32 7.96 -15 10 C-13.68 10.33 -12.36 10.66 -11 11 C-13.375 11.125 -13.375 11.125 -16 11 C-16.66 10.34 -17.32 9.68 -18 9 C-17.43181818 3.43181818 -17.43181818 3.43181818 -16 2 C-13.30345146 1.92680379 -10.63308542 1.90757463 -7.9375 1.9375 C-7.17888672 1.94201172 -6.42027344 1.94652344 -5.63867188 1.95117188 C-3.75908129 1.9629932 -1.87953101 1.98092922 0 2 C0 1.34 0 0.68 0 0 Z " fill="#4D74BF" transform="translate(373,373)"/>
<path d="M0 0 C2.81887051 2.81887051 3.2255686 6.11071301 4.125 9.875 C4.30675781 10.59558594 4.48851562 11.31617188 4.67578125 12.05859375 C5.51856938 15.49945053 6 18.43681883 6 22 C5.34 22 4.68 22 4 22 C3.32210976 19.64856824 2.65759253 17.29461376 2 14.9375 C1.71382812 13.95233398 1.71382812 13.95233398 1.421875 12.94726562 C0.20403571 8.5325982 -0.19227394 4.62058323 0 0 Z " fill="#0D316A" transform="translate(242,342)"/>
<path d="M0 0 C0.33 0 0.66 0 1 0 C1.19588612 4.89715308 0.62669479 8.41100838 -1 13 C-1.31839844 14.01320312 -1.63679688 15.02640625 -1.96484375 16.0703125 C-2.28582031 17.07835937 -2.60679688 18.08640625 -2.9375 19.125 C-3.25589844 20.13820312 -3.57429688 21.15140625 -3.90234375 22.1953125 C-4.95986462 24.89744767 -6.1441817 26.78993718 -8 29 C-7.08115076 23.11936484 -6.04674887 17.57996789 -3.796875 12.05859375 C-2.27425565 8.12516042 -1.1700732 4.04961504 0 0 Z " fill="#E1A789" transform="translate(43,191)"/>
<path d="M0 0 C0.33 0 0.66 0 1 0 C0.88512252 1.58409994 0.75765492 3.16728963 0.625 4.75 C0.55539063 5.63171875 0.48578125 6.5134375 0.4140625 7.421875 C-0.0024676 10.01536433 -0.7366043 11.72102853 -2 14 C-2.28875 14.845625 -2.5775 15.69125 -2.875 16.5625 C-4.15426972 19.33425106 -5.45231855 20.38646842 -8 22 C-6.42545856 17.15408121 -4.67580423 12.38980736 -2.875 7.625 C-2.45927734 6.52091797 -2.45927734 6.52091797 -2.03515625 5.39453125 C-1.35777777 3.59597461 -0.67902967 1.7979339 0 0 Z " fill="#2560BC" transform="translate(236,409)"/>
<path d="M0 0 C5.94 0 11.88 0 18 0 C18 0.33 18 0.66 18 1 C16.72125 1.144375 15.4425 1.28875 14.125 1.4375 C11.74307106 1.70642746 10.15547309 1.92226346 8 3 C8 4.65 8 6.3 8 8 C6.85073734 7.04578192 5.70569459 6.08647955 4.5625 5.125 C3.92441406 4.59132813 3.28632813 4.05765625 2.62890625 3.5078125 C1 2 1 2 0 0 Z " fill="#B8B0C4" transform="translate(396,384)"/>
<path d="M0 0 C2 2 2 2 2.5 5.5625 C2.665 6.696875 2.83 7.83125 3 9 C3.66 9.33 4.32 9.66 5 10 C4.75 11.8125 4.75 11.8125 4 14 C2.68 14.99 1.36 15.98 0 17 C0 11.39 0 5.78 0 0 Z " fill="#D8CDCC" transform="translate(390,352)"/>
<path d="M0 0 C0.8723412 2.99480917 1.10829766 5.63575911 1.0625 8.75 C1.05347656 9.54921875 1.04445313 10.3484375 1.03515625 11.171875 C1.01775391 12.07679688 1.01775391 12.07679688 1 13 C2.22976562 12.65775391 2.22976562 12.65775391 3.484375 12.30859375 C4.56203125 12.02113281 5.6396875 11.73367187 6.75 11.4375 C7.81734375 11.14746094 8.8846875 10.85742188 9.984375 10.55859375 C12.84335927 10.02901506 14.31597383 10.01629138 17 11 C14.94237091 11.70194375 12.87863969 12.38601697 10.8125 13.0625 C9.66394531 13.44535156 8.51539063 13.82820312 7.33203125 14.22265625 C4.02545492 14.99406151 2.20917686 14.96093996 -1 14 C-2.33500455 8.65998179 -1.512545 5.16044765 0 0 Z " fill="#212D3E" transform="translate(22,225)"/>
<path d="M0 0 C0.671875 1.6953125 0.671875 1.6953125 1 4 C-0.109375 6.3671875 -0.109375 6.3671875 -1.75 8.875 C-4.06749888 12.51832382 -6.15299557 16.10076843 -8 20 C-8.66 20 -9.32 20 -10 20 C-8.6128558 15.40639183 -6.73993255 11.39340498 -4.4375 7.1875 C-3.50744141 5.47626953 -3.50744141 5.47626953 -2.55859375 3.73046875 C-1 1 -1 1 0 0 Z " fill="#314561" transform="translate(288,318)"/>
<path d="M0 0 C-2.72344582 1.48988243 -5.45465614 2.96493737 -8.1875 4.4375 C-8.95642578 4.85837891 -9.72535156 5.27925781 -10.51757812 5.71289062 C-14.31498161 7.75012425 -17.64595236 9.52009495 -22 10 C-19.35011696 6.02517545 -16.32296892 4.83040938 -12.125 2.75 C-11.40441406 2.37359375 -10.68382813 1.9971875 -9.94140625 1.609375 C-8.89146484 1.0834375 -8.89146484 1.0834375 -7.8203125 0.546875 C-7.18367676 0.22557617 -6.54704102 -0.09572266 -5.89111328 -0.42675781 C-3.57783379 -1.12796879 -2.25842351 -0.76512158 0 0 Z " fill="#324666" transform="translate(93,275)"/>
<path d="M0 0 C0.34548714 6.33393082 -0.70657253 11.10261508 -3 17 C-3.33 17 -3.66 17 -4 17 C-4.16868683 12.61414247 -4.05053352 9.84475034 -2 6 C-2 4.35 -2 2.7 -2 1 C-5.3 1 -8.6 1 -12 1 C-5.21126761 -2.3943662 -5.21126761 -2.3943662 0 0 Z " fill="#253A56" transform="translate(499,273)"/>
<path d="M0 0 C1.04370776 3.21932394 0.92371112 5.35356679 0.125 8.625 C-0.05804688 9.40101562 -0.24109375 10.17703125 -0.4296875 10.9765625 C-1 13 -1 13 -2 15 C-2.66 15 -3.32 15 -4 15 C-4.12375 15.639375 -4.2475 16.27875 -4.375 16.9375 C-4.58125 17.618125 -4.7875 18.29875 -5 19 C-5.66 19.33 -6.32 19.66 -7 20 C-5.27068234 12.99102311 -3.16032658 6.49711809 0 0 Z " fill="#334259" transform="translate(281,79)"/>
<path d="M0 0 C1 1 1 1 1.0625 4.0625 C1.041875 5.031875 1.02125 6.00125 1 7 C0.67 7 0.34 7 0 7 C0 5.35 0 3.7 0 2 C-0.90878906 2.09087891 -0.90878906 2.09087891 -1.8359375 2.18359375 C-2.67382812 2.26738281 -3.51171875 2.35117187 -4.375 2.4375 C-5.72851562 2.57285156 -5.72851562 2.57285156 -7.109375 2.7109375 C-13.5546875 3.35546875 -13.5546875 3.35546875 -20 4 C-13.80064078 0.72890954 -6.96832883 -2.14410118 0 0 Z " fill="#223A5D" transform="translate(246,272)"/>
<path d="M0 0 C0 3 0 3 -2 6 C-0.26043342 7.73956658 2.1936622 7.37190386 4.5625 7.5625 C6.08037109 7.68818359 6.08037109 7.68818359 7.62890625 7.81640625 C8.80259766 7.90728516 8.80259766 7.90728516 10 8 C10 8.33 10 8.66 10 9 C4.06 9 -1.88 9 -8 9 C-8 8.34 -8 7.68 -8 7 C-6.25 5.2734375 -6.25 5.2734375 -4 3.375 C-3.2575 2.74335938 -2.515 2.11171875 -1.75 1.4609375 C-1.1725 0.97882813 -0.595 0.49671875 0 0 Z " fill="#B9B4C8" transform="translate(404,367)"/>
<path d="M0 0 C0.99 0.33 1.98 0.66 3 1 C1.29295928 2.70704072 -0.41451301 4.41359764 -2.125 6.1171875 C-3.66491603 7.66351984 -5.17983289 9.23470884 -6.6875 10.8125 C-8.7945294 12.80563592 -10.41629122 13.79789549 -13 15 C-9.09489511 9.49280079 -4.90282356 4.64172645 0 0 Z " fill="#CFD5E7" transform="translate(63,51)"/>
<path d="M0 0 C3.12560577 0.47357663 5.81328644 1.28774419 8.6875 2.5625 C11.7039543 4.13269771 11.7039543 4.13269771 14 4 C14 4.66 14 5.32 14 6 C14.61488281 6.12117188 15.22976563 6.24234375 15.86328125 6.3671875 C16.67152344 6.53476562 17.47976563 6.70234375 18.3125 6.875 C19.11300781 7.03742188 19.91351563 7.19984375 20.73828125 7.3671875 C23 8 23 8 26 10 C16.64410646 9.16836502 8.22817098 5.34695825 0 1 C0 0.67 0 0.34 0 0 Z " fill="#D49774" transform="translate(333,473)"/>
<path d="M0 0 C0.33 0.66 0.66 1.32 1 2 C0.34 2.94875 -0.32 3.8975 -1 4.875 C-3.17968457 7.66238955 -3.17968457 7.66238955 -3 10 C-3.66 10 -4.32 10 -5 10 C-5.433125 11.1446875 -5.433125 11.1446875 -5.875 12.3125 C-7 15 -7 15 -9 18 C-9.66 18 -10.32 18 -11 18 C-9.70462451 14.48575165 -8.1743389 11.52734063 -6.0625 8.4375 C-5.55847656 7.69371094 -5.05445313 6.94992187 -4.53515625 6.18359375 C-3.06322729 4.08993399 -1.54802711 2.03785061 0 0 Z " fill="#CBD0E0" transform="translate(51,315)"/>
<path d="M0 0 C1.35983509 2.23763909 2.03642251 3.53726861 1.828125 6.18359375 C1.63734375 6.92738281 1.4465625 7.67117187 1.25 8.4375 C1.04890625 9.22511719 0.8478125 10.01273438 0.640625 10.82421875 C-0.08797596 13.29879639 -0.95227288 15.64261398 -2 18 C-2.37125 18.928125 -2.7425 19.85625 -3.125 20.8125 C-3.41375 21.534375 -3.7025 22.25625 -4 23 C-4.33 23 -4.66 23 -5 23 C-4.44636539 14.97229811 -2.34312056 7.66145933 0 0 Z " fill="#DBA68D" transform="translate(296,187)"/>
<path d="M0 0 C0 3 0 3 -1.28515625 4.62573242 C-2.16494141 5.4819519 -2.16494141 5.4819519 -3.0625 6.35546875 C-3.69414062 6.97744141 -4.32578125 7.59941406 -4.9765625 8.24023438 C-5.64429688 8.88283203 -6.31203125 9.52542969 -7 10.1875 C-8.00160156 11.16879883 -8.00160156 11.16879883 -9.0234375 12.16992188 C-10.67578441 13.78686135 -12.33471601 15.39640491 -14 17 C-14.66 16.67 -15.32 16.34 -16 16 C-10.96679794 10.22494276 -5.96260189 4.82082706 0 0 Z " fill="#D9DDEA" transform="translate(319,47)"/>
<path d="M0 0 C0.66 0.33 1.32 0.66 2 1 C0.29592618 2.27653929 -1.41347351 3.5459704 -3.125 4.8125 C-4.07632813 5.52019531 -5.02765625 6.22789062 -6.0078125 6.95703125 C-8.93153579 8.95325485 -11.74332171 10.61152951 -15 12 C-15.66 11.67 -16.32 11.34 -17 11 C-16.01 10.67 -15.02 10.34 -14 10 C-13.67 9.34 -13.34 8.68 -13 8 C-11.36021682 6.95650161 -9.68535024 5.96817992 -8 5 C-7.32710937 4.55785156 -6.65421875 4.11570313 -5.9609375 3.66015625 C-5.25195312 3.19480469 -4.54296875 2.72945312 -3.8125 2.25 C-2.80123047 1.57710937 -2.80123047 1.57710937 -1.76953125 0.890625 C-1.18558594 0.59671875 -0.60164063 0.3028125 0 0 Z " fill="#E1A27F" transform="translate(197,213)"/>
<path d="M0 0 C1.134375 0.020625 2.26875 0.04125 3.4375 0.0625 C0.48552536 1.63779969 -2.42065922 2.73054755 -5.625 3.6875 C-6.91083984 4.07808594 -6.91083984 4.07808594 -8.22265625 4.4765625 C-10.5625 5.0625 -10.5625 5.0625 -13.5625 5.0625 C-13.5625 4.0725 -13.5625 3.0825 -13.5625 2.0625 C-12.60537109 1.97162109 -12.60537109 1.97162109 -11.62890625 1.87890625 C-10.38947266 1.75322266 -10.38947266 1.75322266 -9.125 1.625 C-8.30128906 1.54378906 -7.47757813 1.46257812 -6.62890625 1.37890625 C-3.33534244 0.87459875 -3.95275298 0.06934654 0 0 Z " fill="#18376B" transform="translate(67.5625,225.9375)"/>
<path d="M0 0 C2.62429743 3.13709118 3.95420147 6.13194468 5.25 10 C5.60578125 11.03125 5.9615625 12.0625 6.328125 13.125 C6.9907779 15.96053799 7.00586171 17.31770211 6 20 C5.73445312 19.14535156 5.46890625 18.29070312 5.1953125 17.41015625 C4.84210938 16.30542969 4.48890625 15.20070313 4.125 14.0625 C3.77695313 12.96035156 3.42890625 11.85820313 3.0703125 10.72265625 C2.29975705 7.87121196 2.29975705 7.87121196 0 7 C0 4.69 0 2.38 0 0 Z " fill="#1B3154" transform="translate(239,83)"/>
<path d="M0 0 C0.66 0.33 1.32 0.66 2 1 C-3.96583144 9.81548975 -3.96583144 9.81548975 -9 11 C-7.59155282 7.78475695 -5.89655214 5.67816132 -3.375 3.25 C-2.74335938 2.63640625 -2.11171875 2.0228125 -1.4609375 1.390625 C-0.73777344 0.70226563 -0.73777344 0.70226563 0 0 Z " fill="#31425D" transform="translate(309,42)"/>
<path d="M0 0 C3.96 1.98 3.96 1.98 8 4 C8 4.66 8 5.32 8 6 C9.65 6 11.3 6 13 6 C13 6.99 13 7.98 13 9 C7.68972746 7.53967505 3.53669968 5.01679014 -1 2 C-0.67 1.34 -0.34 0.68 0 0 Z " fill="#E4A179" transform="translate(75,467)"/>
<path d="M0 0 C0.33 0 0.66 0 1 0 C0.48517081 5.852795 -0.45357192 11.3297637 -2 17 C-2.33 17 -2.66 17 -3 17 C-3.34548714 10.66606918 -2.29342747 5.89738492 0 0 Z " fill="#163763" transform="translate(247,147)"/>
<path d="M0 0 C3.38407306 6.0429876 4.3891982 11.19292882 3 18 C2.67 18 2.34 18 2 18 C0.59545452 11.88019467 -0.23268915 6.28260706 0 0 Z " fill="#2E4364" transform="translate(270,388)"/>
<path d="M0 0 C0.99 0.33 1.98 0.66 3 1 C1.87895467 2.31587941 0.75303035 3.62760353 -0.375 4.9375 C-1.00148437 5.66839844 -1.62796875 6.39929688 -2.2734375 7.15234375 C-4 9 -4 9 -6 10 C-5.67 8.35 -5.34 6.7 -5 5 C-4.34 5 -3.68 5 -3 5 C-3 4.34 -3 3.68 -3 3 C-2.01 3 -1.02 3 0 3 C0 2.01 0 1.02 0 0 Z " fill="#0E2E66" transform="translate(217,206)"/>
<path d="M0 0 C0 0.66 0 1.32 0 2 C-3.93281242 5.0900669 -7.02125936 6.52583422 -12 7 C-8.8380314 3.47318887 -4.98182478 0 0 0 Z " fill="#30466A" transform="translate(85,26)"/>
<path d="M0 0 C2.7839183 1.39195915 2.97898997 3.15575779 4 6 C4.66 6 5.32 6 6 6 C6 8.31 6 10.62 6 13 C2.47612355 8.88881081 0 5.53491888 0 0 Z " fill="#213453" transform="translate(27,423)"/>
<path d="M0 0 C0.99 0.33 1.98 0.66 3 1 C1.55049545 4.7910119 -0.15172566 8.3874638 -2 12 C-2.33 12 -2.66 12 -3 12 C-3 10.02 -3 8.04 -3 6 C-2.01 5.67 -1.02 5.34 0 5 C0 3.35 0 1.7 0 0 Z " fill="#153265" transform="translate(487,178)"/>
<path d="M0 0 C1 3 1 3 0.00390625 5.26171875 C-0.47175781 6.06222656 -0.94742188 6.86273438 -1.4375 7.6875 C-1.91058594 8.49574219 -2.38367188 9.30398438 -2.87109375 10.13671875 C-3.24363281 10.75160156 -3.61617187 11.36648438 -4 12 C-4.33 12 -4.66 12 -5 12 C-5 10.35 -5 8.7 -5 7 C-4.34 7 -3.68 7 -3 7 C-3 5.68 -3 4.36 -3 3 C-1.5 1.25 -1.5 1.25 0 0 Z " fill="#15325D" transform="translate(238,428)"/>
<path d="M0 0 C1.32 0.33 2.64 0.66 4 1 C2.6875 2.5 2.6875 2.5 1 4 C0.01 4 -0.98 4 -2 4 C-2.66 5.32 -3.32 6.64 -4 8 C-4.66 7.67 -5.32 7.34 -6 7 C-4.02 4.69 -2.04 2.38 0 0 Z " fill="#3A5989" transform="translate(314,38)"/>
<path d="M0 0 C0.33 0 0.66 0 1 0 C1 1.65 1 3.3 1 5 C3.64 4.67 6.28 4.34 9 4 C5.99382731 7.00617269 3.17618402 6.59585316 -1 7 C-0.67 4.69 -0.34 2.38 0 0 Z " fill="#CF9982" transform="translate(286,220)"/>
<path d="M0 0 C0.33 0 0.66 0 1 0 C1.125 2.375 1.125 2.375 1 5 C-1 7 -1 7 -3.625 7.125 C-4.40875 7.08375 -5.1925 7.0425 -6 7 C-5.02433888 5.83040013 -4.044375 4.66438823 -3.0625 3.5 C-2.51722656 2.8503125 -1.97195312 2.200625 -1.41015625 1.53125 C-0.71212891 0.77328125 -0.71212891 0.77328125 0 0 Z " fill="#2258B5" transform="translate(155,378)"/>
<path d="M0 0 C0.8723412 2.99480917 1.10829766 5.63575911 1.0625 8.75 C1.05347656 9.54921875 1.04445313 10.3484375 1.03515625 11.171875 C1.01775391 12.07679688 1.01775391 12.07679688 1 13 C0.01 12.67 -0.98 12.34 -2 12 C-1.85831863 10.56208484 -1.71148957 9.1246763 -1.5625 7.6875 C-1.48128906 6.88699219 -1.40007813 6.08648437 -1.31640625 5.26171875 C-1 3 -1 3 0 0 Z " fill="#1B3151" transform="translate(22,225)"/>
<path d="M0 0 C0.33 0.99 0.66 1.98 1 3 C-1.31 4.98 -3.62 6.96 -6 9 C-6.66 8.67 -7.32 8.34 -8 8 C-5.36 5.36 -2.72 2.72 0 0 Z " fill="#BEB1BE" transform="translate(382,139)"/>
<path d="M0 0 C0.66 0.33 1.32 0.66 2 1 C-4.28571429 6.57142857 -4.28571429 6.57142857 -8 7 C-5.42215154 4.35247996 -3.08351902 2.05567935 0 0 Z " fill="#3B609F" transform="translate(199,464)"/>
<path d="M0 0 C0.66 0.66 1.32 1.32 2 2 C-0.31 4.31 -2.62 6.62 -5 9 C-5.66 8.67 -6.32 8.34 -7 8 C-4.69 5.36 -2.38 2.72 0 0 Z " fill="#3162B3" transform="translate(218,445)"/>
<path d="M0 0 C0.66 0.33 1.32 0.66 2 1 C0.06745228 3.0245738 -1.63158688 4.42105792 -4 6 C-6.1875 5.625 -6.1875 5.625 -8 5 C-6.71475739 4.13619741 -5.42157581 3.28419631 -4.125 2.4375 C-3.04605469 1.72400391 -3.04605469 1.72400391 -1.9453125 0.99609375 C-1.30335938 0.66738281 -0.66140625 0.33867187 0 0 Z " fill="#3D4E69" transform="translate(333,26)"/>
<path d="M0 0 C0.66 0 1.32 0 2 0 C1.25 6.75 1.25 6.75 -1 9 C-1.125 2.25 -1.125 2.25 0 0 Z " fill="#113673" transform="translate(240,419)"/>
<path d="M0 0 C3.16115776 1.36983503 3.9927092 1.9890638 6 5 C3.36 4.34 0.72 3.68 -2 3 C-1.34 2.01 -0.68 1.02 0 0 Z " fill="#C8B9BE" transform="translate(385,136)"/>
<path d="M0 0 C2.51699845 2.51699845 3.10964078 4.57554146 4 8 C3.625 10.375 3.625 10.375 3 12 C0.58314288 7.77050005 -0.34833144 4.87664009 0 0 Z " fill="#20375D" transform="translate(492,87)"/>
<path d="M0 0 C0.95465783 2.16967689 1.14401212 3.56328793 0.3984375 5.82421875 C-0.35870385 7.5684743 -1.17609198 9.28627131 -2 11 C-2.95465783 8.83032311 -3.14401212 7.43671207 -2.3984375 5.17578125 C-1.64129615 3.4315257 -0.82390802 1.71372869 0 0 Z " fill="#283750" transform="translate(28,334)"/>
<path d="M0 0 C0.66 0.99 1.32 1.98 2 3 C0.66666667 5.66666667 -0.66666667 8.33333333 -2 11 C-3 9 -3 9 -2.44140625 6.8359375 C-2.15136719 6.02382813 -1.86132812 5.21171875 -1.5625 4.375 C-1.27503906 3.55773437 -0.98757812 2.74046875 -0.69140625 1.8984375 C-0.46324219 1.27195312 -0.23507813 0.64546875 0 0 Z " fill="#1C5BC0" transform="translate(234,288)"/>
<path d="M0 0 C0.99 0.66 1.98 1.32 3 2 C-1.95 3.485 -1.95 3.485 -7 5 C-4.49183541 2.49183541 -3.09162264 1.38589981 0 0 Z " fill="#E6A179" transform="translate(426,476)"/>
<path d="M0 0 C0.33 0 0.66 0 1 0 C1.36923077 5.53846154 1.36923077 5.53846154 -0.5 7.875 C-1.2425 8.431875 -1.2425 8.431875 -2 9 C-2.25 3.375 -2.25 3.375 0 0 Z " fill="#0E3783" transform="translate(481,439)"/>
<path d="M0 0 C1.46534385 3.80989402 0.55203911 6.3241179 -1 10 C-1.99 10.495 -1.99 10.495 -3 11 C-2.32829194 7.1936543 -1.27253436 3.64793184 0 0 Z " fill="#2A374D" transform="translate(277,339)"/>
<path d="M0 0 C0.33 0 0.66 0 1 0 C0.25 7.625 0.25 7.625 -2 11 C-2.28571429 3.57142857 -2.28571429 3.57142857 0 0 Z " fill="#223A68" transform="translate(497,279)"/>
<path d="M0 0 C0.8125 1.625 0.8125 1.625 1 4 C-0.46818136 6.24609835 -2.15852858 8.02378677 -4 10 C-4 5.75354935 -2.18249194 3.61475228 0 0 Z " fill="#255DB8" transform="translate(479,179)"/>
<path d="M0 0 C0.66 0.99 1.32 1.98 2 3 C1.01 3.33 0.02 3.66 -1 4 C-1.3721042 5.32303717 -1.70630173 6.65737935 -2 8 C-2.99 8.495 -2.99 8.495 -4 9 C-2.94124926 5.59687262 -1.99097846 2.98646769 0 0 Z " fill="#284B85" transform="translate(278,90)"/>
</svg>
